<?xml version="1.0" encoding="iso-8859-1"?>

<!DOCTYPE svg PUBLIC "-//W3C//DTD SVG 1.1//EN" "http://www.w3.org/Graphics/SVG/1.1/DTD/svg11.dtd">
<svg version="1.1" id="Layer_1" xmlns="http://www.w3.org/2000/svg" xmlns:xlink="http://www.w3.org/1999/xlink" x="0px" y="0px"
	 width="19px" height="32px" viewBox="0 0 19 32" style="enable-background:new 0 0 19 32;" xml:space="preserve">
<g id="key">
	<path d="M19,9.5C19,4.253,14.747,0,9.5,0S0,4.253,0,9.5c0,3.195,1.582,6.015,4,7.736V18c0,0.553,0.448,1,1,1h1v11l3.999,2
		l3.022-2.975l-1.006-0.527c-0.193-0.102-0.313-0.303-0.31-0.521c0.003-0.218,0.13-0.414,0.326-0.51L13,27v-1l-0.968-0.483
		c-0.195-0.099-0.319-0.298-0.319-0.517s0.124-0.418,0.319-0.517L13,24l-1.434-1.434c-0.131-0.132-0.191-0.317-0.162-0.501
		s0.146-0.342,0.312-0.425L13,21v-2h1c0.552,0,1-0.447,1-1v-0.764C17.418,15.515,19,12.695,19,9.5z M9.5,3C10.88,3,12,4.12,12,5.5
		S10.88,8,9.5,8S7,6.88,7,5.5S8.12,3,9.5,3z"/>
</g>
<g id="Layer_1_1_">
</g>
</svg>
