<?xml version="1.0" encoding="iso-8859-1"?>

<!DOCTYPE svg PUBLIC "-//W3C//DTD SVG 1.1//EN" "http://www.w3.org/Graphics/SVG/1.1/DTD/svg11.dtd">
<svg version="1.1" xmlns="http://www.w3.org/2000/svg" xmlns:xlink="http://www.w3.org/1999/xlink" x="0px" y="0px" width="25px"
	 height="30px" viewBox="0 0 25 30" style="enable-background:new 0 0 25 30;" xml:space="preserve">
<g id="fire">
	<path d="M15,0c-1.205,4.822-3.572,8.354-5.702,11.345C7.62,9.677,5.945,7.69,4.619,5.073C4.435,13.78-0.903,18.876,0.133,23.426
		c0.949,4.168,4.83,6.898,8.973,6.532c-2.309-0.266-4.306-1.947-4.851-4.341c-0.69-3.033,2.868-6.431,2.99-12.235
		c0.884,1.745,2.001,3.069,3.12,4.182c1.42-1.994,2.998-4.349,3.8-7.563c1.666,6.667,6.666,9.651,6.666,13.333
		c0,3.548-2.771,6.439-6.266,6.646C14.711,29.986,14.854,30,15,30c5.523,0,10-4.477,10-10S17.5,10,15,0z"/>
	<path d="M12,21c-0.75,3-3,4.344-3,6s1.344,3,3,3c1.657,0,3-1.344,3-3S12.75,24,12,21z"/>
</g>
<g id="Layer_1">
</g>
</svg>
